<svg id="Шар_1" data-name="Шар 1" xmlns="http://www.w3.org/2000/svg" viewBox="0 0 867.4 165.3"><defs><style>.cls-1{fill:#ff7819;}</style></defs><title>Afrodite logo</title><path class="cls-1" d="M115.1,694.9c-11.9,0-20.1-.1-24.4-.3l-2.8,6.7c-.8,1.9-1.6,3.9-2.3,6-1.5,4-3.6,6.1-6.3,6.1a4.07,4.07,0,0,1-3-1.2,3.46,3.46,0,0,1-1.2-2.4A8.45,8.45,0,0,1,77,705a54.72,54.72,0,0,0,5.8-10.7c-5.6-.5-8.4-2.1-8.4-4.9s1.6-4.1,4.8-4.1a26,26,0,0,1,6.8,1l48.7-118.4,66.8,144.4H150.6l-8.1-17.4ZM93.8,687c6.3.5,11.8.8,16.8.8h28.6l-24.4-52.6Z" transform="translate(-74.4 -549)"/><path class="cls-1" d="M285.9,615.6l-10.4-.4H264.7v97.2h-42l.1-97.2h-1.6l-9.3.4c-3.8,0-5.8-1.3-5.8-4s1.8-4,5.3-4l11.6.4c1.4-11.8,6.6-20.8,15.7-27.1,8.3-5.7,19.2-8.6,32.7-8.6q18.9,0,26.1,7.5a6.11,6.11,0,0,1,2,3.9c0,2.9-1.5,4.3-4.4,4.3a7.2,7.2,0,0,1-4.2-1.5l-3.5-2.4a22.69,22.69,0,0,0-12.2-4.6c-1.2-.1-2.4-.1-3.7-.1s-2.5.1-3.6.2-2.2.3-3.3.4v28h8.5l13.1-.4c3.5,0,5.3,1.3,5.3,4S289.6,615.6,285.9,615.6Z" transform="translate(-74.4 -549)"/><path class="cls-1" d="M304.1,608h42v30.7c4.5-11.1,9.3-19.3,14.5-24.6s10.4-7.9,15.6-7.9a10.35,10.35,0,0,1,7,2.3,6.74,6.74,0,0,1,2.6,5.1,11,11,0,0,1-.8,4.5,7.39,7.39,0,0,1-2.1,2.8c-1.8,1.6-3.4,2.4-5,2.4a14.83,14.83,0,0,1-5.5-.8,13.51,13.51,0,0,0-5.4-1.4c-1.6,0-3.5,1.3-6,3.8a42.56,42.56,0,0,0-6.9,10.4,77.5,77.5,0,0,0-8.1,35.2v41.7H304l.1-104.2Z" transform="translate(-74.4 -549)"/><path class="cls-1" d="M389.4,659.6a52.58,52.58,0,0,1,4.2-21.3,50.42,50.42,0,0,1,11.7-16.7c10.7-10.2,24.1-15.2,40.2-15.2,16.5,0,29.9,5.3,40.2,15.8,9.9,10,14.8,22.6,14.8,37.8s-5.1,28.1-15.2,38.4q-15.75,15.9-40.2,15.9c-16,0-29.2-5-39.6-15.1C394.7,688.6,389.4,675.5,389.4,659.6Zm53,47.3a8.08,8.08,0,0,0,1.6.1h1.4c13.2,0,24.2-4.1,33.1-12.2,9.5-8.8,14.3-20.3,14.3-34.6,0-13.9-4.5-25.2-13.4-33.9s-20.2-12.9-34.1-12.9h-1.5a6.6,6.6,0,0,0-1.4.1Z" transform="translate(-74.4 -549)"/><path class="cls-1" d="M599.5,707a49.8,49.8,0,0,1-25.8,7.2,64.64,64.64,0,0,1-23.9-4.1,51.72,51.72,0,0,1-17.6-11.3C522,688.7,517,675.6,517,659.4c0-15,5-27.4,15-37.4,10.7-10.5,24.6-15.8,41.8-15.8a57.5,57.5,0,0,1,25.8,6V574.1h40.2V712.3H599.6l-.1-5.3Zm-27.7-93.6a36.85,36.85,0,0,0-5.8.4v92.6a45.05,45.05,0,0,0,7.6.6c9,0,17.7-2.9,25.9-8.6V621A54.29,54.29,0,0,0,571.8,613.4Z" transform="translate(-74.4 -549)"/><path class="cls-1" d="M671.7,608h42V712.3h-42Z" transform="translate(-74.4 -549)"/><path class="cls-1" d="M785.8,714.2q-38.25,0-38.3-35l-.1-64.1-11.2.5c-3.5,0-5.3-1.3-5.3-4s1.9-4,5.7-4l9.4.4h1.5V592.9l41.9-18.8V608h13.1l9.3-.4c3.8,0,5.8,1.4,5.8,4.1a3.26,3.26,0,0,1-1.6,2.9,6.63,6.63,0,0,1-3.7,1l-12.1-.5H789.5V707c7.6-.1,14-2.3,19-6.5a14.86,14.86,0,0,0,5.1-7c1-2.9,1.9-4.7,2.7-5.5a4,4,0,0,1,2.9-1.2,3.41,3.41,0,0,1,2.8,1.3,5,5,0,0,1,1.2,3.1,9.4,9.4,0,0,1-1,4,21.72,21.72,0,0,1-2.9,4.6,35.27,35.27,0,0,1-10.2,8.7A48.41,48.41,0,0,1,785.8,714.2Z" transform="translate(-74.4 -549)"/><path class="cls-1" d="M930.3,688.6c2.5,0,3.8,1.2,3.8,3.5,0,1.8-1.1,3.8-3.4,6.3-10.3,10.5-24.4,15.8-42.3,15.8-16.1,0-29.6-4.8-40.6-14.6-11.4-10.1-17.1-22.9-17.1-38.3,0-15.8,5.1-28.7,15.4-38.9,10.9-10.8,25.3-16.2,43.4-16.2,14.5,0,26.6,4.4,36.4,13.2q15.9,14.1,15.9,37.2c0,2.2-.1,4.6-.2,7H877.1v41.9a74.73,74.73,0,0,0,14.9,1.4,42.59,42.59,0,0,0,30-11.6,34.19,34.19,0,0,0,3.6-4C927.2,689.5,928.7,688.6,930.3,688.6Zm-26.1-73.3a52.33,52.33,0,0,0-14.4-1.9,60.26,60.26,0,0,0-12.7,1.1v42.1h27.1V615.3Z" transform="translate(-74.4 -549)"/><path class="cls-1" d="M719,568.6h0" transform="translate(-74.4 -549)"/><path class="cls-1" d="M719.5,564.6v.6a12.57,12.57,0,0,1-.5,3.3v.2c-.3.9-.6,1.9-1,2.9-.1.3-.3.6-.4.9-4.6,9.4-16.4,20.2-21.3,24.6a5.36,5.36,0,0,1-7,0,154,154,0,0,1-13.6-13.2c-6.5-7.5-9.7-13.5-9.7-18.3v-.9a15.8,15.8,0,0,1,1.2-6.1v-.1l.2-.5a15.78,15.78,0,0,1,5.3-6.4,14.28,14.28,0,0,1,8-2.5,16.06,16.06,0,0,1,5.3,1,15.17,15.17,0,0,1,6.8,5.5c.5-.7,1-1.3,1.5-1.9a14.53,14.53,0,0,1,10.6-4.7,14.09,14.09,0,0,1,8.8,3.1,16.29,16.29,0,0,1,5.3,7.8,18.57,18.57,0,0,1,.6,3.4A5.28,5.28,0,0,0,719.5,564.6Z" transform="translate(-74.4 -549)"/></svg>