<svg id="Шар_2" data-name="Шар 2" xmlns="http://www.w3.org/2000/svg" viewBox="0 0 661 853.09"><defs><style>.cls-1{fill:#777;}</style></defs><title>Exit</title><path class="cls-1" d="M838.4,151.9v672a42.84,42.84,0,0,1-29.1,40.6L528.6,959.8A42.88,42.88,0,0,1,472,919.2V854.6H352.9a71.44,71.44,0,0,1-71.4-71.4V680.4a20,20,0,0,1,40,0V783.3a31.45,31.45,0,0,0,31.4,31.4H472V247.1a42.85,42.85,0,0,1,29-40.5L670.66,149l111-37.7a42.05,42.05,0,0,1,13.8-2.3h1.6c.5,0,1.1.1,1.6.1s1.3.1,1.9.2a43,43,0,0,1,37.6,39.2,3.75,3.75,0,0,1,.1,1.1A17.7,17.7,0,0,1,838.4,151.9Z" transform="translate(-177.4 -109)"/><path class="cls-1" d="M795.5,109a42.05,42.05,0,0,0-13.8,2.3l-111,37.7H352.9a31.45,31.45,0,0,0-31.4,31.4V313a20,20,0,0,1-40,0V180.4A71.44,71.44,0,0,1,352.9,109Z" transform="translate(-177.4 -109)"/><path class="cls-1" d="M285.7,615.6V570.4a19.78,19.78,0,0,0-19.8-19.8H197.2a19.78,19.78,0,0,1-19.8-19.8V458.1a19.78,19.78,0,0,1,19.8-19.8h68.7a19.78,19.78,0,0,0,19.8-19.8V373.3c0-17.6,21.3-26.4,33.7-14L440.5,480.4a19.86,19.86,0,0,1,0,28L319.4,629.6C307,642,285.7,633.2,285.7,615.6Z" transform="translate(-177.4 -109)"/></svg>