<svg id="Шар_1" data-name="Шар 1" xmlns="http://www.w3.org/2000/svg" viewBox="0 0 282.58 82.97"><defs><style>.cls-1{fill:#0087e6;}.cls-2{fill:#e60000;}.cls-3{fill:#e6c300;}.cls-4{fill:#05e600;}</style></defs><title>Google logo</title><path class="cls-1" d="M366.29,492.37h30.22a21.66,21.66,0,0,1,.43,2.5,26,26,0,0,1,.17,2.92A34,34,0,0,1,395.3,509a25.84,25.84,0,0,1-5.68,9.38,28.29,28.29,0,0,1-9.9,6.8,33.81,33.81,0,0,1-13.17,2.41,33.27,33.27,0,0,1-12.65-2.41,31.41,31.41,0,0,1-10.33-6.71,32.15,32.15,0,0,1-7-10.2,33.37,33.37,0,0,1,0-25.73,32.15,32.15,0,0,1,7-10.2,31.59,31.59,0,0,1,10.33-6.72,33.46,33.46,0,0,1,12.65-2.41,33.11,33.11,0,0,1,13.39,2.58,30.1,30.1,0,0,1,10.11,7.15l-8,7.83a21.88,21.88,0,0,0-23.59-5,20.06,20.06,0,0,0-6.63,4.26,20.32,20.32,0,0,0-4.52,6.67,23.68,23.68,0,0,0,0,17.47,20,20,0,0,0,4.57,6.67,20.34,20.34,0,0,0,6.67,4.26,23.64,23.64,0,0,0,16.39.09,19.44,19.44,0,0,0,5.81-3.66,13.82,13.82,0,0,0,3-3.92,21.78,21.78,0,0,0,1.94-5.29H366.29Z" transform="translate(-334.02 -463.19)"/><path class="cls-2" d="M424.91,482.64a23.49,23.49,0,0,1,9,1.68,20.9,20.9,0,0,1,11.7,11.75,25.16,25.16,0,0,1,0,18.08,20.9,20.9,0,0,1-11.7,11.75,25.06,25.06,0,0,1-18,0,20.88,20.88,0,0,1-11.71-11.75,25.16,25.16,0,0,1,0-18.08,20.88,20.88,0,0,1,11.71-11.75A23.4,23.4,0,0,1,424.91,482.64Zm0,34.52a10.91,10.91,0,0,0,4.17-.82,10.56,10.56,0,0,0,3.58-2.37,11.18,11.18,0,0,0,2.45-3.78,14.79,14.79,0,0,0,0-10.16,11.32,11.32,0,0,0-2.45-3.79,10.68,10.68,0,0,0-3.58-2.36,11.14,11.14,0,0,0-8.39,0,10.78,10.78,0,0,0-3.53,2.36,11.32,11.32,0,0,0-2.45,3.79,14.79,14.79,0,0,0,0,10.16,11.18,11.18,0,0,0,2.45,3.78,10.66,10.66,0,0,0,3.53,2.37A10.87,10.87,0,0,0,424.91,517.16Z" transform="translate(-334.02 -463.19)"/><path class="cls-3" d="M474.49,482.64a23.4,23.4,0,0,1,9,1.68,20.88,20.88,0,0,1,11.71,11.75,25.16,25.16,0,0,1,0,18.08,20.88,20.88,0,0,1-11.71,11.75,25.06,25.06,0,0,1-18,0,20.9,20.9,0,0,1-11.7-11.75,25.16,25.16,0,0,1,0-18.08,20.9,20.9,0,0,1,11.7-11.75A23.49,23.49,0,0,1,474.49,482.64Zm0,34.52a11,11,0,0,0,4.17-.82,10.42,10.42,0,0,0,3.57-2.37,11.2,11.2,0,0,0,2.46-3.78,14.79,14.79,0,0,0,0-10.16,11.34,11.34,0,0,0-2.46-3.79,10.54,10.54,0,0,0-3.57-2.36,11.14,11.14,0,0,0-8.39,0,10.68,10.68,0,0,0-3.53,2.36,11.32,11.32,0,0,0-2.45,3.79,14.63,14.63,0,0,0,0,10.16,11.18,11.18,0,0,0,2.45,3.78,10.56,10.56,0,0,0,3.53,2.37A10.87,10.87,0,0,0,474.49,517.16Z" transform="translate(-334.02 -463.19)"/><path class="cls-1" d="M523.55,546.17a24.92,24.92,0,0,1-8-1.17,22.5,22.5,0,0,1-6.07-3,20.35,20.35,0,0,1-4.31-4.09,15.93,15.93,0,0,1-2.49-4.47l10.76-4.31a10.19,10.19,0,0,0,4,5.21A11.58,11.58,0,0,0,532,532.72q3.1-3.47,3.1-9.54v-2.92h-.69a13.73,13.73,0,0,1-5.2,4.34,16.92,16.92,0,0,1-7.62,1.6,18.34,18.34,0,0,1-7.36-1.54,19.23,19.23,0,0,1-6.33-4.39,23.17,23.17,0,0,1,0-31.7,19.23,19.23,0,0,1,6.33-4.39,18.51,18.51,0,0,1,7.36-1.54,17.05,17.05,0,0,1,7.62,1.6,13.82,13.82,0,0,1,5.2,4.34h.69V484h10.76v39.16a26.84,26.84,0,0,1-1.63,9.6,20.77,20.77,0,0,1-4.57,7.23,19.79,19.79,0,0,1-7,4.56A24.87,24.87,0,0,1,523.55,546.17ZM524,516a11.47,11.47,0,0,0,4.09-.76,10.47,10.47,0,0,0,3.57-2.24,11.16,11.16,0,0,0,2.49-3.63,12.08,12.08,0,0,0,1-5,12.29,12.29,0,0,0-1-5,11.07,11.07,0,0,0-2.49-3.68,10.62,10.62,0,0,0-3.57-2.24,11.7,11.7,0,0,0-4.09-.76,11.36,11.36,0,0,0-4.05.76,10.4,10.4,0,0,0-3.53,2.28,11.71,11.71,0,0,0-2.49,3.68,13.35,13.35,0,0,0,0,9.89A11.16,11.16,0,0,0,516.4,513a10.6,10.6,0,0,0,3.53,2.24A11.14,11.14,0,0,0,524,516Z" transform="translate(-334.02 -463.19)"/><path class="cls-4" d="M555.48,526.2V464.57h11.28V526.2Z" transform="translate(-334.02 -463.19)"/><path class="cls-2" d="M615.9,516a23.6,23.6,0,0,1-7.87,8.35,21.92,21.92,0,0,1-12.1,3.18,23.35,23.35,0,0,1-8.9-1.67,21.2,21.2,0,0,1-11.8-11.8,23.59,23.59,0,0,1-1.67-9,23.09,23.09,0,0,1,1.63-8.65,21.78,21.78,0,0,1,11.49-12,21.27,21.27,0,0,1,8.82-1.81,23,23,0,0,1,9,1.68,18.47,18.47,0,0,1,6.63,4.65,19.85,19.85,0,0,1,4,7,27,27,0,0,1,1.38,8.77v1a5.45,5.45,0,0,0-.08.95,4.55,4.55,0,0,0-.09.94H584.66a11.79,11.79,0,0,0,1.42,4.43,10.57,10.57,0,0,0,2.67,3.1,10.17,10.17,0,0,0,3.48,1.81,13.79,13.79,0,0,0,3.88.56,11,11,0,0,0,6.41-1.76,13,13,0,0,0,4-4.44Zm-10.24-16.35a7.37,7.37,0,0,0-.73-2.5,8.73,8.73,0,0,0-1.89-2.58,10.19,10.19,0,0,0-3.1-2,11.41,11.41,0,0,0-4.44-.78,10.32,10.32,0,0,0-6.37,2.07,11,11,0,0,0-3.87,5.77Z" transform="translate(-334.02 -463.19)"/></svg>