<svg id="Шар_1" data-name="Шар 1" xmlns="http://www.w3.org/2000/svg" viewBox="0 0 749.66 690.7"><defs><style>.cls-1{fill:#ff7819;}</style></defs><title>Heart_MK2</title><path class="cls-1" d="M145.1,279.2a214.92,214.92,0,0,1,74.8-89.7,196.53,196.53,0,0,1,185.6-20.2c38,15.4,70.9,42.4,94.5,77.3a213.7,213.7,0,0,1,20.8-26.2c38-40.9,90.7-65.6,147.6-65.6,44.8,0,87.5,14.9,123.4,43.2,35.2,27.7,60.6,65.6,73.7,109.6a226.46,226.46,0,0,1,8.7,47.7,172.74,172.74,0,0,1,.5,17.7c0,2.3-.1,5.9-.1,7.4v1a233.87,233.87,0,0,1-6.3,45.8l-.6,2.3A297,297,0,0,1,853.2,470c-1.9,4.4-3.9,8.8-6.1,13.2C783.1,614.6,618.2,766.4,548.6,827a74.09,74.09,0,0,1-97.5.4c-41.1-35.1-120.4-105.9-190-185.3-91.5-104.4-136-188.2-136-256.1V373a226.05,226.05,0,0,1,16.5-85.6Z" transform="translate(-125.1 -154.8)"/></svg>