<svg id="Шар_1" data-name="Шар 1" xmlns="http://www.w3.org/2000/svg" viewBox="0 0 749.66 690.7"><defs><style>.cls-1{fill:#f18524;}.cls-2{fill:none;}.cls-3{fill:#ff7819;}</style></defs><title>Heart kurva</title><path class="cls-1" d="M386.9,668.4q6.3,6.3,12.6,12.3Q393.2,674.7,386.9,668.4Zm48.6,46.5c2.9,2.7,5.7,5.3,8.5,7.8C441.3,720.2,438.4,717.6,435.5,714.9Zm27.2,24.7c3.4,3,6.7,6,9.9,8.8C469.4,745.6,466.1,742.6,462.7,739.6Z" transform="translate(-125.1 -154.8)"/><path class="cls-2" d="M486.1,760.2c1.4,1.2,2.8,2.4,4.1,3.6C488.9,762.6,487.5,761.4,486.1,760.2Zm0,0c1.4,1.2,2.8,2.4,4.1,3.6C488.9,762.6,487.5,761.4,486.1,760.2Zm-99.2-91.8q6.3,6.3,12.6,12.3Q393.2,674.7,386.9,668.4Zm48.6,46.5c2.9,2.7,5.7,5.3,8.5,7.8C441.3,720.2,438.4,717.6,435.5,714.9Zm27.2,24.7c3.4,3,6.7,6,9.9,8.8C469.4,745.6,466.1,742.6,462.7,739.6Zm23.4,20.6c1.4,1.2,2.8,2.4,4.1,3.6C488.9,762.6,487.5,761.4,486.1,760.2Zm0,0c1.4,1.2,2.8,2.4,4.1,3.6C488.9,762.6,487.5,761.4,486.1,760.2Zm0,0c1.4,1.2,2.8,2.4,4.1,3.6C488.9,762.6,487.5,761.4,486.1,760.2Zm-99.2-91.8q6.3,6.3,12.6,12.3Q393.2,674.7,386.9,668.4Zm48.6,46.5c2.9,2.7,5.7,5.3,8.5,7.8C441.3,720.2,438.4,717.6,435.5,714.9Zm27.2,24.7c3.4,3,6.7,6,9.9,8.8C469.4,745.6,466.1,742.6,462.7,739.6Zm23.4,20.6c1.4,1.2,2.8,2.4,4.1,3.6C488.9,762.6,487.5,761.4,486.1,760.2Zm0,0c1.4,1.2,2.8,2.4,4.1,3.6C488.9,762.6,487.5,761.4,486.1,760.2Zm-23.4-20.6c3.4,3,6.7,6,9.9,8.8C469.4,745.6,466.1,742.6,462.7,739.6Zm-27.2-24.7c2.9,2.7,5.7,5.3,8.5,7.8C441.3,720.2,438.4,717.6,435.5,714.9Zm-48.6-46.5q6.3,6.3,12.6,12.3Q393.2,674.7,386.9,668.4ZM867.6,430h0" transform="translate(-125.1 -154.8)"/><path class="cls-3" d="M874.2,355.3a226.46,226.46,0,0,0-8.7-47.7c-13.1-44-38.5-81.9-73.7-109.6-35.9-28.3-78.6-43.2-123.4-43.2-56.9,0-109.6,24.7-147.6,65.6A213.7,213.7,0,0,0,500,246.6c-23.6-34.9-56.5-61.9-94.5-77.3a196.53,196.53,0,0,0-185.6,20.2,214.92,214.92,0,0,0-74.8,89.7l-3.5,7.5v.7A226.05,226.05,0,0,0,125.1,373v13c0,67.9,44.5,151.7,136,256.1,69.6,79.4,148.9,150.2,190,185.3a74.09,74.09,0,0,0,97.5-.4c69.6-60.6,234.5-212.4,298.5-343.8,2.2-4.4,4.2-8.8,6.1-13.2a297,297,0,0,0,14.5-40.5l.6-2.3a233.87,233.87,0,0,0,6.3-45.8v-1c0-1.5.1-5.1.1-7.4A172.74,172.74,0,0,0,874.2,355.3ZM503.4,768.7a5.88,5.88,0,0,1-3.7,1.4,5.43,5.43,0,0,1-3.6-1.4c-1.9-1.6-3.8-3.3-5.8-5-1.3-1.1-2.7-2.3-4.1-3.6-4.2-3.7-8.7-7.6-13.5-11.8-3.2-2.8-6.5-5.7-9.9-8.8-1.3-1.1-2.6-2.3-3.9-3.5s-2.6-2.3-3.9-3.5l-2.7-2.4c-.9-.8-1.8-1.6-2.7-2.5-1.8-1.6-3.7-3.3-5.5-5-2.8-2.5-5.6-5.1-8.5-7.8-9.6-8.8-19.6-18.3-29.9-28.2-2.1-2-4.1-4-6.2-6-4.2-4-8.4-8.2-12.6-12.3s-8.5-8.4-12.7-12.7c-3.2-3.2-6.4-6.5-9.6-9.8-17.1-17.6-34.4-36.1-51-55.1-101.9-116.2-117.1-178.3-117.1-205v-13a148.89,148.89,0,0,1,13-61.3l1.6-3.4c23-47.6,69.9-78.2,120.7-78.2,60.9,0,114.6,43.3,130.6,105.3,4.6,18,20.2,30.5,37.8,30.5a38.58,38.58,0,0,0,31.9-17.4,44.53,44.53,0,0,0,5.9-13.1,143.62,143.62,0,0,1,29.4-57.2c25.1-29.8,61.6-48.1,101.2-48.1,59.5,0,111.4,40.2,129.1,100.1a150.2,150.2,0,0,1,6.2,42.8c0,1.2-.1,4.1-.1,5.8v.2a151.89,151.89,0,0,1-4,29.4.9.9,0,0,0-.1.5,196.65,196.65,0,0,1-9.7,27.3l-.9,2.1c-13.2,30-33.6,62.2-57.8,94.4C655.5,633,543.7,733.7,503.4,768.7Z" transform="translate(-125.1 -154.8)"/></svg>