<svg id="Шар_1" data-name="Шар 1" xmlns="http://www.w3.org/2000/svg" viewBox="0 0 695.2 986.23"><defs><style>.cls-1{fill:#ff7819;}</style></defs><title>Map point</title><path class="cls-1" d="M504.4,997.83a78.81,78.81,0,0,1-66.8-36.72C390.48,886.83,322.24,774.89,264.66,663.3c-32.34-62.66-57.74-118.41-75.51-165.71-21.77-57.93-32.35-103.2-32.35-138.39a347.6,347.6,0,1,1,695.2,0c0,35.19-10.58,80.46-32.35,138.4-17.77,47.32-43.18,103.08-75.51,165.74C686.41,775.22,618.23,887,571.21,961.1A78.82,78.82,0,0,1,504.4,997.83Zm0-936.23c-164.1,0-297.6,133.5-297.6,297.6,0,37.84,17.75,117.34,102.29,281.17,56.74,110,124.16,220.54,170.72,293.94a29.12,29.12,0,0,0,49.19,0c46.48-73.21,113.82-183.64,170.71-293.88C784.25,476.56,802,397.05,802,359.2,802,195.1,668.5,61.6,504.4,61.6Z" transform="translate(-156.8 -11.6)"/><path class="cls-1" d="M504.4,538.2c-98.7,0-179-80.3-179-179s80.3-179,179-179,179,80.3,179,179S603.1,538.2,504.4,538.2Zm0-308a129,129,0,1,0,129,129A129.15,129.15,0,0,0,504.4,230.2Z" transform="translate(-156.8 -11.6)"/></svg>