<svg id="Шар_1" data-name="Шар 1" xmlns="http://www.w3.org/2000/svg" viewBox="0 0 868.1 763.8"><defs><style>.cls-1{fill:#ff7819;}</style></defs><title>Message icon MK_2 suqua</title><path class="cls-1" d="M768,342H257a25,25,0,0,1,0-50H768a25,25,0,0,1,0,50Z" transform="translate(-75.4 -144.5)"/><path class="cls-1" d="M586,472H257a25,25,0,0,1,0-50H586a25,25,0,0,1,0,50Z" transform="translate(-75.4 -144.5)"/><path class="cls-1" d="M760.8,593h-511a25,25,0,1,1,0-50h511a25,25,0,0,1,0,50Z" transform="translate(-75.4 -144.5)"/><path class="cls-1" d="M820.3,194.5a73.23,73.23,0,0,1,73.2,73.2V621.3a73.23,73.23,0,0,1-73.2,73.2H465.4A75.29,75.29,0,0,0,416,713L283.6,828.8l-.8-60.3c-.5-40.8-34.2-74-75-74h-9.2a73.23,73.23,0,0,1-73.2-73.2V267.6a73.23,73.23,0,0,1,73.2-73.2l621.7.1m0-50H198.6A123.19,123.19,0,0,0,75.4,267.7V621.3A123.19,123.19,0,0,0,198.6,744.5h9.2a25,25,0,0,1,25,24.7l1.5,114.4a25,25,0,0,0,25.1,24.7,24.52,24.52,0,0,0,16.3-6.2L448.9,750.7a25,25,0,0,1,16.5-6.2H820.3A123.19,123.19,0,0,0,943.5,621.3V267.6A123.23,123.23,0,0,0,820.3,144.5Z" transform="translate(-75.4 -144.5)"/></svg>