<svg id="Шар_1" data-name="Шар 1" xmlns="http://www.w3.org/2000/svg" viewBox="0 0 774.3 766.8"><defs><style>.cls-1{fill:#f18524;}.cls-2{fill:none;}</style></defs><title>Mutch nahoy</title><path class="cls-1" d="M475.2,463.5a76.81,76.81,0,0,0-13.6,27.8,66.65,66.65,0,0,1-13,25.9c38.2,39.9,76.4,74.6,102.3,97.2a420,420,0,0,0,31.7-47.3C554.8,542.8,514.1,505.5,475.2,463.5ZM879.9,224.6a166.69,166.69,0,0,0-56.6-84.2c-27.6-21.7-60.3-33.2-94.8-33.2-52.4,0-100.2,27.3-129.3,70.5-29.2-43.2-77-70.5-129.3-70.5a152,152,0,0,0-85.8,26.6,165.6,165.6,0,0,0-57.4,68.8l-2.7,5.8v.6a174.63,174.63,0,0,0-12.7,65.7v10a139.42,139.42,0,0,0,3.3,29.4,189.44,189.44,0,0,1,74.3,37.2C370,317.9,366,296.7,366,284.7v-10a113.76,113.76,0,0,1,9.9-46.9l2-4.1c17.9-35.8,53.5-58.7,92-58.7,46.8,0,88,33.3,100.3,80.9,3.6,13.8,15.5,23.5,29,23.5h0c13.5,0,25.5-9.7,29-23.5,12.2-47.6,53.5-80.9,100.3-80.9,45.7,0,85.6,30.9,99.2,76.9a117.33,117.33,0,0,1,4.7,32.9c0,.9-.1,3.2-.1,4.4v.1a112.89,112.89,0,0,1-3.1,22.6c0,.1-.1.2-.1.4a164.25,164.25,0,0,1-8.1,22.6c-19.9,45.3-61.4,97.1-103.8,142.7a211.29,211.29,0,0,1,4.5,43.5c0,2-.1,4.8-.1,6.6v1.2a204.17,204.17,0,0,1-2.9,28.2c57.7-57.5,123-131.8,152-197.9a212.78,212.78,0,0,0,11.1-31.1l.4-1.6a174.4,174.4,0,0,0,4.8-35.3v-.8c0-1.2.1-3.9.1-5.7A175.93,175.93,0,0,0,879.9,224.6Z" transform="translate(-112.8 -107.2)"/><path class="cls-1" d="M313.9,738.1c3.3,3.2,6.5,6.4,9.7,9.5C320.4,744.5,317.2,741.3,313.9,738.1Zm37.4,35.8c2.2,2,4.4,4,6.5,6C355.7,777.9,353.6,775.9,351.3,773.9Zm20.9,18.9c2.6,2.3,5.1,4.6,7.6,6.7C377.4,797.4,374.8,795.1,372.2,792.8Z" transform="translate(-112.8 -107.2)"/><path class="cls-2" d="M390.2,808.6c1.1.9,2.1,1.9,3.2,2.7A38.24,38.24,0,0,1,390.2,808.6Zm0,0c1.1.9,2.1,1.9,3.2,2.7A38.24,38.24,0,0,1,390.2,808.6Zm-76.3-70.5c3.3,3.2,6.5,6.4,9.7,9.5C320.4,744.5,317.2,741.3,313.9,738.1Zm37.4,35.8c2.2,2,4.4,4,6.5,6C355.7,777.9,353.6,775.9,351.3,773.9Zm20.9,18.9c2.6,2.3,5.1,4.6,7.6,6.7C377.4,797.4,374.8,795.1,372.2,792.8Zm18,15.8c1.1.9,2.1,1.9,3.2,2.7A38.24,38.24,0,0,1,390.2,808.6Zm0,0c1.1.9,2.1,1.9,3.2,2.7A38.24,38.24,0,0,1,390.2,808.6Zm0,0c1.1.9,2.1,1.9,3.2,2.7A38.24,38.24,0,0,1,390.2,808.6Zm-76.3-70.5c3.3,3.2,6.5,6.4,9.7,9.5C320.4,744.5,317.2,741.3,313.9,738.1Zm37.4,35.8c2.2,2,4.4,4,6.5,6C355.7,777.9,353.6,775.9,351.3,773.9Zm20.9,18.9c2.6,2.3,5.1,4.6,7.6,6.7C377.4,797.4,374.8,795.1,372.2,792.8Zm18,15.8c1.1.9,2.1,1.9,3.2,2.7A38.24,38.24,0,0,1,390.2,808.6Zm0,0c1.1.9,2.1,1.9,3.2,2.7A38.24,38.24,0,0,1,390.2,808.6Zm-18-15.8c2.6,2.3,5.1,4.6,7.6,6.7C377.4,797.4,374.8,795.1,372.2,792.8Zm-20.9-18.9c2.2,2,4.4,4,6.5,6C355.7,777.9,353.6,775.9,351.3,773.9Zm-37.4-35.8c3.3,3.2,6.5,6.4,9.7,9.5C320.4,744.5,317.2,741.3,313.9,738.1ZM683.3,555h0" transform="translate(-112.8 -107.2)"/><path class="cls-1" d="M688.3,497.6a175.73,175.73,0,0,0-6.7-36.7A166.69,166.69,0,0,0,625,376.7c-27.6-21.7-60.3-33.2-94.8-33.2-43.7,0-84.2,19-113.4,50.4A156.12,156.12,0,0,0,400.9,414a161.5,161.5,0,0,0-72.6-59.4,151.37,151.37,0,0,0-142.6,15.5A165.37,165.37,0,0,0,128.2,439l-2.7,5.8v.5A174.63,174.63,0,0,0,112.8,511v10c0,52.2,34.2,116.5,104.5,196.7,53.4,61,114.4,115.4,146,142.4A57.34,57.34,0,0,0,400.5,874a56.74,56.74,0,0,0,37.6-14.2c53.5-46.5,180.1-163.2,229.3-264.1,1.7-3.4,3.2-6.8,4.7-10.2a212.78,212.78,0,0,0,11.1-31.1l.4-1.7a173.44,173.44,0,0,0,4.8-35.2v-.8c0-1.2.1-3.9.1-5.7A100.15,100.15,0,0,0,688.3,497.6ZM403.5,815.2a4.3,4.3,0,0,1-2.8,1.1,3.84,3.84,0,0,1-2.8-1.1c-1.4-1.2-2.9-2.5-4.5-3.8-1-.9-2.1-1.8-3.2-2.7-3.2-2.8-6.7-5.8-10.4-9.1-2.4-2.2-5-4.4-7.6-6.7l-3-2.7-3-2.7a18,18,0,0,1-2-1.9c-.6-.7-1.4-1.2-2.1-1.9-1.4-1.3-2.8-2.5-4.2-3.8-2.1-2-4.3-4-6.5-6-7.4-6.8-15-14-23-21.7-1.6-1.5-3.2-3.1-4.8-4.6-3.2-3.1-6.4-6.3-9.7-9.5l-9.8-9.8c-2.5-2.5-4.9-5-7.4-7.5-13.2-13.5-26.4-27.7-39.2-42.3-78.3-89.3-89.9-137-89.9-157.5V511a114.77,114.77,0,0,1,10-47.1l1.2-2.6c17.6-36.6,53.7-60.1,92.7-60.1,46.8,0,88.1,33.3,100.3,80.9,3.5,13.8,15.5,23.4,29,23.4a29.68,29.68,0,0,0,24.5-13.4,31.84,31.84,0,0,0,4.5-10.1,111.71,111.71,0,0,1,22.6-44c19.3-22.9,47.3-36.9,77.7-36.9,45.7,0,85.6,30.9,99.2,76.9a117.33,117.33,0,0,1,4.7,32.9c0,.9-.1,3.1-.1,4.4v.1a113.89,113.89,0,0,1-3.1,22.6c0,.1-.1.3-.1.4a161.68,161.68,0,0,1-7.4,21,11.11,11.11,0,0,1-.7,1.6c-10.1,23.1-25.8,47.8-44.4,72.5C520.3,710.9,434.4,788.2,403.5,815.2Z" transform="translate(-112.8 -107.2)"/></svg>