<svg id="Шар_1" data-name="Шар 1" xmlns="http://www.w3.org/2000/svg" viewBox="0 0 853 853"><defs><style>.cls-1{fill:#ff7819;}</style></defs><title>Planet icon blyat`</title><g id="Шар_3" data-name="Шар 3"><path class="cls-1" d="M134.8,367.9c-2.9-2.3-2.1-2.3-.8-1,.2.3.5.6.8,1Z" transform="translate(-73.5 -73.5)"/><path class="cls-1" d="M197.5,389.1c.2.3.5.8,1,1.7h0A15.05,15.05,0,0,0,197.5,389.1Z" transform="translate(-73.5 -73.5)"/><path class="cls-1" d="M208.6,398.3h0a.35.35,0,0,1,.2.1C213.2,400.7,203.9,396.7,208.6,398.3Z" transform="translate(-73.5 -73.5)"/><path class="cls-1" d="M215.5,447.9a13.89,13.89,0,0,0,1.9.6C215.2,447.9,215,447.8,215.5,447.9Z" transform="translate(-73.5 -73.5)"/><path class="cls-1" d="M224.8,454.7l-.5-1c-.3-.4-.5-.9-.8-1.3a.1.1,0,0,1-.1-.1c-.2-.1-.3-.3-.5-.5a19.2,19.2,0,0,0-1.5-1.4c.4.3.8.6,1.3,1,.1.1.2.1.3.2a5.55,5.55,0,0,1,.8.6c-.2,0-.3-.1-.5-.2h-.1l.1.1h0a5.74,5.74,0,0,1,.8.9h0c.2.4.3.7.4.9C225.1,455.1,225.2,455.3,224.8,454.7Z" transform="translate(-73.5 -73.5)"/><path class="cls-1" d="M225.9,459.4c0-.1-.1-.2-.1-.4v-.3C225.7,455.4,227.1,464.3,225.9,459.4Z" transform="translate(-73.5 -73.5)"/><path class="cls-1" d="M271.5,564.5l.1.4A.76.76,0,0,1,271.5,564.5Z" transform="translate(-73.5 -73.5)"/><path class="cls-1" d="M271.7,566.3h0a5.53,5.53,0,0,1-.1-.9l.1.6v.3Z" transform="translate(-73.5 -73.5)"/><path class="cls-1" d="M294.3,650.6a6.07,6.07,0,0,1-.5-1.1,1.63,1.63,0,0,0-.3-.6,15.07,15.07,0,0,1,.6,1.5v.1c.1,0,.1,0,.2.1Z" transform="translate(-73.5 -73.5)"/><path class="cls-1" d="M305.1,387.3c-1.1,3.6-.5-3.5,0,0Z" transform="translate(-73.5 -73.5)"/><path class="cls-1" d="M306.1,383.8v.2C303.7,387.8,307.2,379.1,306.1,383.8Z" transform="translate(-73.5 -73.5)"/><path class="cls-1" d="M308.3,380.3h0a3.19,3.19,0,0,0-.6.7C308.3,380,309.7,377.9,308.3,380.3Z" transform="translate(-73.5 -73.5)"/><path class="cls-1" d="M310.6,413.3c.9,3.9-2.3-3.6,0,0Z" transform="translate(-73.5 -73.5)"/><path class="cls-1" d="M312.4,416.1c.3.4.2.5-.4-.3h0l-.1-.1h0c-.4-.3-.9-.7-1.6-1.2a9.25,9.25,0,0,1,1,.5c-.7-.8-.6-.8.3.2.1.1.3.2.4.3s.3.2.5.3h-.3l.1.1C312.9,416.4,312.9,416.5,312.4,416.1Z" transform="translate(-73.5 -73.5)"/><path class="cls-1" d="M314.4,416.6a11.5,11.5,0,0,0-1.7-.6h0c-.1-.1-.2-.1-.2-.2A2.42,2.42,0,0,1,314.4,416.6Z" transform="translate(-73.5 -73.5)"/><path class="cls-1" d="M315.8,373.1c-.1.1-.5.4-1.2,1l-.5.5c-.2.1-.3.2-.5.3C314.9,373.8,315.6,373.2,315.8,373.1Z" transform="translate(-73.5 -73.5)"/><path class="cls-1" d="M317,690.1c.1.2.3.4.5.7l-.1-.1A2.09,2.09,0,0,1,317,690.1Z" transform="translate(-73.5 -73.5)"/><path class="cls-1" d="M319.6,417.9l-1.8-.3c.1,0,.1,0,.2-.1a.37.37,0,0,1,.3.1Z" transform="translate(-73.5 -73.5)"/><path class="cls-1" d="M336.7,710.2c-2.4-1.1-2.6-1.4-2-1.3A8.58,8.58,0,0,0,336.7,710.2Z" transform="translate(-73.5 -73.5)"/><path class="cls-1" d="M364.1,464.5h-.3c-.2,0-.4-.1-.7-.1C363.5,464.4,363.8,464.5,364.1,464.5Z" transform="translate(-73.5 -73.5)"/><path class="cls-1" d="M364.8,723.2c-.9-.1-1.5-.2-1.7-.2.2,0,.7.1,1.4.2h0A.19.19,0,0,1,364.8,723.2Z" transform="translate(-73.5 -73.5)"/><path class="cls-1" d="M381.8,699.8h0c-.2-.5-.4-1.1-.6-1.5C382.4,701,382.3,700.7,381.8,699.8Z" transform="translate(-73.5 -73.5)"/><path class="cls-1" d="M385.1,711.8a4.27,4.27,0,0,1-.2-1.9.37.37,0,0,0,.1.3h0A9.74,9.74,0,0,0,385.1,711.8Z" transform="translate(-73.5 -73.5)"/><path class="cls-1" d="M385.5,715.2a21.17,21.17,0,0,0-.3,2.7h0c-.1.6-.1.6-.1.2-.1.3-.3.6-.4.9,0,.1-.1.2-.1.3s-.1.3-.2.4a.1.1,0,0,0,.1-.1c-.1,0-.1.1-.2.1-.1.3-.3.6-.4.9a3.09,3.09,0,0,1,.2-.8l-.3.3-.3.3h0a8,8,0,0,1-.8.6c.7.2-4.3,2.4-1,.1h0a.1.1,0,0,0,.1-.1c.2-.1,1.2-.7,1.9-1.1a.1.1,0,0,1-.1.1l.1-.1.1-.1c.1,0,.1-.1.2-.1s.1-.1.1-.2l-.3.3a.35.35,0,0,1-.2.1c.3-.5.5-.9.8-1,0,.1-.1.2-.1.3s-.1.3-.2.4a.1.1,0,0,1,.1-.1c0-.1,0-.2.1-.2s.1-.2.2-.3h-.1c.1-.4.3-.8.4-1.1.1-.5.2-1,.3-1.4A6.47,6.47,0,0,0,385.5,715.2Z" transform="translate(-73.5 -73.5)"/><path class="cls-1" d="M400.7,281.8c.1-.1.4-.4,1.2-1.1l.3-.3h.1C404,279.3,400.8,281.8,400.7,281.8Z" transform="translate(-73.5 -73.5)"/><path class="cls-1" d="M406.8,613.5c-.6-1.4,0-3.1.3-2.4A5.87,5.87,0,0,0,406.8,613.5Z" transform="translate(-73.5 -73.5)"/><path class="cls-1" d="M407.4,639.7a7.84,7.84,0,0,1-.2-1.4c0,.3.1.5.1.8v.1A.75.75,0,0,1,407.4,639.7Z" transform="translate(-73.5 -73.5)"/><path class="cls-1" d="M410.9,477.5a9.44,9.44,0,0,0-.9-.3h0a4.88,4.88,0,0,1-.7-.3A15,15,0,0,1,410.9,477.5Z" transform="translate(-73.5 -73.5)"/><path class="cls-1" d="M413.4,661c1.3,3.8-2.2-4.7,0,0Z" transform="translate(-73.5 -73.5)"/><path class="cls-1" d="M418.4,507.5a20.28,20.28,0,0,1-1.2,1.8,4.43,4.43,0,0,0,.5-.9A5.5,5.5,0,0,0,418.4,507.5Z" transform="translate(-73.5 -73.5)"/><path class="cls-1" d="M419.6,263c-1.9,2.5-2.1,2.8-.7.8,0-.1.1-.1.1-.2Z" transform="translate(-73.5 -73.5)"/><path class="cls-1" d="M423.3,499.2c2-3.5-1,3.6,0,0Z" transform="translate(-73.5 -73.5)"/><path class="cls-1" d="M425.4,490.4a9,9,0,0,0-.3-1.5,1.42,1.42,0,0,0-.2-.6,2.92,2.92,0,0,1-.2-.9c0-.2-.1-.4-.1-.6-.2-.3-.3-.6-.5-.9h0a5.74,5.74,0,0,1-.4-.7c.4.5.7.9.9,1.1,0-.4.1-.1.3.4a4.8,4.8,0,0,1,.4,1.5,1.69,1.69,0,0,0-.2-.5Q425.4,490.1,425.4,490.4Z" transform="translate(-73.5 -73.5)"/><path class="cls-1" d="M425.2,493c-.1,1-.2,1.1-.1.5A.75.75,0,0,1,425.2,493Z" transform="translate(-73.5 -73.5)"/><path class="cls-1" d="M425.9,566.1a10.92,10.92,0,0,0-1.3,1.7C426.7,564.3,426.4,565.1,425.9,566.1Z" transform="translate(-73.5 -73.5)"/><path class="cls-1" d="M430.2,223.2c.3.7.5,1.1.5,1.1s-.2-.3-.4-.8l-.3-.6-.5-.5-.1-.1c-1.1-1.3-.8-1.3-.1-.9a.1.1,0,0,1,.1.1h0c.8.5,1.8,1.5.9,1.2C430.7,223.5,430.9,224,430.2,223.2Z" transform="translate(-73.5 -73.5)"/><path class="cls-1" d="M430.8,238.4c0-.4.1-.8.1-1.2C431.9,233.2,430.6,241.6,430.8,238.4Z" transform="translate(-73.5 -73.5)"/><path class="cls-1" d="M686.5,419.4c-.1-.4-.3-.7-.4-1.1a19.68,19.68,0,0,1,.7,1.9c0-.1-.1-.1-.1-.2A1.42,1.42,0,0,0,686.5,419.4Z" transform="translate(-73.5 -73.5)"/><path class="cls-1" d="M738.8,272.6h0a6.75,6.75,0,0,0,2.4-.8A3.68,3.68,0,0,1,738.8,272.6Z" transform="translate(-73.5 -73.5)"/><path class="cls-1" d="M740.1,504.7c-.5-2.3-.3-1.3,0,0Z" transform="translate(-73.5 -73.5)"/><path class="cls-1" d="M787.7,651.5c-1.6.1-3-.1,0,0Z" transform="translate(-73.5 -73.5)"/></g><g id="Шар_1-2" data-name="Шар 1"><path class="cls-1" d="M134.8,367.8l-.1-.1c-.3-.3-.5-.6-.8-.9-1.2-1.2-2-1.3.9,1h0c.1.1.1.1.2.1C134.9,367.9,134.8,367.9,134.8,367.8ZM381.5,138.2a.77.77,0,0,1,.1.3A.37.37,0,0,1,381.5,138.2Z" transform="translate(-73.5 -73.5)"/><path class="cls-1" d="M134.8,367.8l-.1-.1c-.3-.3-.5-.6-.8-.9-1.2-1.2-2-1.3.9,1h0c.1.1.1.1.2.1C134.9,367.9,134.8,367.9,134.8,367.8ZM381.5,138.2a.77.77,0,0,1,.1.3A.37.37,0,0,1,381.5,138.2Z" transform="translate(-73.5 -73.5)"/><path class="cls-1" d="M893,334a428,428,0,1,0,33.5,166A425.21,425.21,0,0,0,893,334ZM763,265.2c1.9-.4,7.8-.3.9-.3,2.7,0,5.5-.6,8.2-.7,2.5-.1,4.9-.1,7.4-.1,1.1,0,2.2.1,3.3.2.4,0,2,.2,3,.3h0c1.5.3,2.9.6,4.3,1a54,54,0,0,1,5.7,1.8,375.94,375.94,0,0,1,56.4,365.7c-.4.2-.7.4-1.1.6-1.1.6-6.1,2.2-6.8,3.2-.9.4-1.8.8-2.7,1.1-2.8,1-5.7,2-8.6,2.9-10.1,3.1-20.4,5.5-30.7,7.7-4.4,1-8.9,1.9-13.3,2.8a5.7,5.7,0,0,1-1.3.1h.7a22.28,22.28,0,0,0-2.7.3,36.88,36.88,0,0,1-4.7.1h-1.2c-.4-.1-.9-.2-1.4-.3a3,3,0,0,0-1-.5c-.2-.4-.5-.7-.6-1-.2-.8-.4-1.5-.6-2.3-.1-.6-.3-1.1-.4-1.7.1-4.4-.4-8.9-.1-13.3.4-6.4,1.1-12.8,1.7-19.2,1.3-13.7,2.6-27.3,3.8-41,2.4-25.3,6.8-51,3.1-76.4-3.8-26.8-21.7-47.5-48.3-54.1-10.3-2.5-21-3-31.2-5.9-1.4-.4-2.8-.9-4.3-1.4-.1,0-.2-.1-.4-.1-1.4-.7-3.3-1.9-4.3-2.5l-.6-.6a31.89,31.89,0,0,1-2.6-2.6,7.32,7.32,0,0,0-.9-.9c-.1-.2-.4-.5-.6-.9-.4-.6-.8-1.2-1.2-1.9-.3-.5-2-3.1-3.1-5.1.1.4.2.6.2.7a4.18,4.18,0,0,0-.3-.9c-.5-1-.8-1.7-.7-1.9a.35.35,0,0,1,.1.2c-.4-1-.7-2.1-1-3.1-.8-2.6-1.4-5.3-2-8-.1-.7-.3-1.4-.4-2.1h0c-.1-1.2-.3-4.3-.3-5-.7-12.8.6-25.7,2.1-38.4a21.12,21.12,0,0,0,.2-2.6h0c.1-.4.2-.9.3-1.2.5-3,.9-6,1.4-9a178.45,178.45,0,0,1,3.9-17.6c1.5-5.5,3.3-10.9,5.3-16.2a13,13,0,0,0,.5-1.4h0c.4-.7.8-1.5,1.1-2.1,1.4-2.9,2.9-5.7,4.6-8.5a60.55,60.55,0,0,1,4-6.3,8.12,8.12,0,0,0,.9-1c1.1-1.3,2.2-2.5,3.3-3.7a70.14,70.14,0,0,1,5.6-5.3l2-1.7.1-.1a165860720638.56,165860720638.56,0,0,1,.2-.2c.1-.1.3-.2.5-.4a136.65,136.65,0,0,1,14-8.8c2.1-1.1,4.2-2.1,6.3-3.1h0l1.2-.6c1-.5,1.3-.5,1.2-.2l2.6-1.3a128.54,128.54,0,0,1,16.4-4.7A29.31,29.31,0,0,0,763,265.2Zm81.5,371.7c.6-.3,2.5-1.1,2.6-1.1a11.89,11.89,0,0,0-1.4.6A6.12,6.12,0,0,0,844.5,636.9ZM701.6,435.4c-.1.1-.6-.2-1.4-.6C700.9,435,701.7,435.3,701.6,435.4Zm-4.2-1.9-1.4-1.1A17.1,17.1,0,0,1,697.4,433.5Zm-1.8-1.5a3,3,0,0,1-.4-.3C695.3,431.8,695.5,431.9,695.6,432Zm-4.2-4.2c-.6-.7-1.3-1.3-1.2-1.5Q691,427.2,691.4,427.8Zm3.9-112a6.39,6.39,0,0,1,.6-1.6A16.59,16.59,0,0,0,695.3,315.8ZM381.6,138.5a.44.44,0,0,1-.1-.3A.37.37,0,0,0,381.6,138.5Zm-40.1,20c4.3,8.2,11.1,15.4,18.1,21a308.12,308.12,0,0,0,34.6,24.4c10.5,6.3,21.6,11.1,32.3,16.9.9.5,1.8,1.1,2.7,1.5.1,0,.1.1.2.1-1.1-1.3-.8-1.3-.1-.9l.1.1h0c.8.5,1.8,1.5.9,1.2.4.7.7,1.3-.1.5.3.7.5,1.1.5,1.1s-.2-.3-.4-.8c.2.9.4,2,.5,2.4s.1.5.2.8a14.52,14.52,0,0,0,.3,1.7c0-.1-.1-1.1-.4-2.9.9.6.3,7.8.3,9.1-.1.8-.1,1.7-.2,2.5,1-4-.3,4.4-.1,1.2,0-.4.1-.8.1-1.2,0,.1-.1.2-.1.4-.6,2.4-1.1,4.8-1.8,7.2-.4,1.4-1,2.8-1.5,4.3-1.4,4.1.6-1.1.6-1.2.4,1.6-3.2,6.5-4.2,8.1-1.3,2.2-2.7,4.4-4.1,6.5a10.47,10.47,0,0,0-.8,1.1l.6-.6c-1.9,2.5-2.1,2.8-.7.8,0-.1.1-.1.1-.2-.5.6-1,1.3-1.4,1.8a117.11,117.11,0,0,1-12.1,12.3c-1.1.9-2.1,1.8-3.2,2.7,1.7-1.1-1.5,1.5-1.6,1.5.1-.1.4-.4,1.2-1.1l.3-.3a.35.35,0,0,1-.2.1c-2.1,1.5-4.2,3-6.4,4.4a182.18,182.18,0,0,1-16.6,9.5c-5.5,2.8-11,5.4-16.6,7.8-1,.5-2.2,1-3.2,1.4,1.3-.4,1.9-.6,2.2-.7-.5.2-2.7,1-3.3,1.2-3.3,1.3-6.5,2.7-9.8,4-23.6,9.6-49.1,18.5-68.1,36-9.7,8.9-17.2,21.1-19.2,34.2-2.4,15.6.8,31.6,5.8,46.4,5.5,16.3,15.8,28.1,32,34.1,10.9,4,22.9,4.3,34.4,4.2,5.7,0,11.4,0,17.1.3,3.1.2,6.2.4,9.2.7,1.4.2,2.8.4,4.2.5-.2,0-.4-.1-.7-.1.4,0,.7.1.9.1h.1c.2,0,.3,0,.4.1a1.49,1.49,0,0,1-.6-.1h-.3c.9.1,1.8.3,2.7.4a203.44,203.44,0,0,1,37.5,10c1.7.6,3.4,1.3,5.2,2h.1a10.71,10.71,0,0,0,1.6.5,9.44,9.44,0,0,0-.9-.3,62.73,62.73,0,0,1,5.8,2.9c.9.5,6.5,2.9,6.6,4a13.44,13.44,0,0,0-1.4-1.1c.5.5,1,.9,1.6,1.4l1.5,1.5a5.74,5.74,0,0,1-.4-.7,5.55,5.55,0,0,1-.6-.8c.1,0,.4.3.6.8.4.5.7.9.9,1.1,0-.4.1-.1.3.4a4.8,4.8,0,0,1,.4,1.5,1.69,1.69,0,0,0-.2-.5c.2,1.7.4,2.6.4,2.8a9,9,0,0,0-.3-1.5,1.42,1.42,0,0,0-.2-.6c0,.8.2,1.8.2,2.3v1.6c0,.5-.1,1-.1,1.2,0-.2.1-.3.1-.5.1-.5.1-1.2.3-2a3.12,3.12,0,0,1-.3,2c-.1,1-.2,1.1-.1.5-.2.6-.3,1.1-.4,1.4-.3,1.3-.8,2.6-1.2,3.9a.9.9,0,0,0-.1.5c2-3.5-.9,3.6,0,0l-.1.1a86.89,86.89,0,0,1-4.6,7.7c-.2.3-.6.9-.9,1.4a5.5,5.5,0,0,0,.7-.9,20.28,20.28,0,0,1-1.2,1.8,4.43,4.43,0,0,0,.5-.9l-2.4,2.7c-4.1,4.7-8.5,9.2-12.8,13.7-8.6,9.1-16.6,18.9-22.8,29.8a144.12,144.12,0,0,0-18.5,70,139.53,139.53,0,0,0,4.6,36.3c3.4,13,9.5,24.9,15.1,37,.2.4.6,1.3.9,1.9l-.6-1.5c1.2,2.7,1.1,2.4.6,1.5.3.9.6,1.8,1,2.7.8,2.5,1.5,4.9,2.1,7.4a.35.35,0,0,1,.1-.2v.5h0c.1.4.2.7.3,1.1.4,1.8.1,1.4-.2.5.1,1,.2,2,.2,2.2,0,.9-.1,1.7-.1,2.6.1-.5.2-.9.3-1.4a21.17,21.17,0,0,0-.3,2.7h0c-.1.6-.1.6-.1.2-.1.3-.3.6-.4.9a.1.1,0,0,1,.1.1l-.2.2c-.1.1-.1.3-.2.4a.1.1,0,0,0,.1-.1c-.1,0-.1.1-.2.1-.1.3-.3.6-.4.9a3.09,3.09,0,0,1,.2-.8l-.3.3v.1c-.8,1.6-.7,1-.3.2a8,8,0,0,1-.8.6c.7.2-4.3,2.4-1,.1-.2,0-.3.1-.5.1l-3,.9c-1.9.5-7.4.5-2.3.6-2.3,0-4.6.4-6.9.4-1,0-2-.1-3-.1-.5,0-1-.1-1.5-.1a.37.37,0,0,1,.3.1c.3,0,.7.1,1.2.1,0,.1-.5,0-1.2-.1-.9-.1-1.5-.2-1.7-.2.2,0,.7.1,1.4.2-2.1-.5-5.6-1.4-5.9-1.5-1.2-.4-2.5-.8-3.7-1.2a19.45,19.45,0,0,1-2.2-.8,7.93,7.93,0,0,0-1.5-.5,18.63,18.63,0,0,0,2.5,1c-1.9-.1-5.4-2.6-7-3.5-2.3-1.3-4.6-2.7-6.8-4.2-1.3-.9-2.6-1.8-3.9-2.8a8.79,8.79,0,0,0-1.3-.7,11.33,11.33,0,0,0,2,1.3c-2.4-1.1-2.6-1.4-2-1.3-1.9-1.5-3.6-3.5-5.2-5a124,124,0,0,1-11-11.9c-.4-.4-.6-.8-1-1.2a1.38,1.38,0,0,1,.3.4,13.5,13.5,0,0,1-2-2.7c-2-2.8-3.9-5.6-5.8-8.4-3.2-5-6.2-10.2-9-15.5-1.3-2.5-2.6-5.1-3.8-7.6l-1.8-3.9c-.1-.3-.6-1.4-1.1-2.5a6.07,6.07,0,0,1-.5-1.1,1.63,1.63,0,0,0-.3-.6,15.07,15.07,0,0,1,.6,1.5c-.3-.8-1.1-2.8-1.2-2.9-.5-1.3-1-2.7-1.6-4-1.1-2.9-2.2-5.9-3.2-8.9-2.1-6-4-12-5.7-18.1a398.55,398.55,0,0,1-9-38.9c-.6-3.1-1.1-6.3-1.5-9.4l-.3-1.8v.1c0-.2-.1-.5-.1-1l.1.6c-.1-1-.4-3.3-.4-3.3-.8-6.9-1.5-13.9-2-20.8a379.44,379.44,0,0,1-.6-39.9c.9-26.1,7.3-54.5-10-76.9-8.6-11.2-20.7-17.2-33.8-21.5-4.5-1.5-9.1-2.7-13.6-4.3-.9-.3-1.8-.7-2.6-1a.1.1,0,0,1,.1.1c4.4,2.3-4.9-1.7-.2-.1h.1c-1.6-.9-4.2-3-6.1-3.8,1.9.8,2.3,2.4.7.8l-1-1h0c-.6-.5-1.2-1.1-1.8-1.6a18,18,0,0,0-1.9-2,5.94,5.94,0,0,1,.4.8,5.94,5.94,0,0,0-.4-.8l-.3-.3c-1.1-1.1-1.3-2.4-.7-1.4-1.9-3.3-4.4-6.3-6.1-9.7-4.4-8.3-8-17-12.4-25.3-4.3-7.9-9.5-15.7-15.9-22.1A379.74,379.74,0,0,1,341.5,158.5ZM307.6,381a1.24,1.24,0,0,1-.2.3A1.24,1.24,0,0,0,307.6,381ZM134,366.8a8.18,8.18,0,0,1,.8.9.1.1,0,0,0,.1.1.35.35,0,0,0,.2.1l-.1-.1h0C131.9,365.5,132.7,365.6,134,366.8ZM500,876.5c-207.6,0-376.5-168.9-376.5-376.5a374.79,374.79,0,0,1,19.1-118.5c4.2,8.3,7.7,17,12.5,25.1A81.46,81.46,0,0,0,178.9,433c9.7,6.8,21.5,9.8,32.7,13.4,1.3.4,2.6,1,3.9,1.5a10.57,10.57,0,0,1,2.2.7c.1,0,.2.1.3.1.8.4,1.6.8,2.4,1.3.6.4,1.7,1.3,2.5,1.8a19.2,19.2,0,0,0-1.5-1.4c.4.3.8.6,1.3,1-.1-.1-.1-.2,0-.2a1.38,1.38,0,0,1,.3.4,5.55,5.55,0,0,1,.8.6c-.2,0-.3-.1-.5-.2a.1.1,0,0,0,.1.1h0a5.74,5.74,0,0,1,.8.9h0c-.1-.2-.2-.5-.3-.7.2,0,.5.7.7,1.7.5,1.1.5,1.4.2.8.4,1.6.8,3.5,1,4.3v-.3c-.1-3.3,1.3,5.6.1.7,0-.1-.1-.2-.1-.4,0,1.2.2,2.4.2,3.5a140.54,140.54,0,0,1-.7,17.2,410.25,410.25,0,0,0,1.2,82.9c6.4,52.5,20.4,108.2,52.7,151.2C296,736.3,317,755,343.9,764.1s62.7,4.6,79-21.1c8.1-12.8,8.7-28.5,6.1-43-2.4-13.6-9.8-26.2-15.5-38.7,0-.1-.1-.2-.1-.3,1.3,3.7-2.2-4.7,0,0,0-.2-.1-.3-.2-.5-.3-1-.7-1.9-1.1-2.9-1-2.9-1.9-5.8-2.7-8.8-.6-2.5-1.2-5-1.7-7.5a17,17,0,0,0-.4-2.2,1.27,1.27,0,0,0,.1.6,7.84,7.84,0,0,1-.2-1.4c0,.3.1.5.1.8a19.53,19.53,0,0,1-.2-2.3,111.78,111.78,0,0,1-.5-15.3c.1-2.8.3-5.6.5-8.4a4.85,4.85,0,0,0,0-1.8,8.09,8.09,0,0,0-.3,2.4c-.6-1.4,0-3.1.3-2.4.3-1.1.6-2.3.7-2.8a118.93,118.93,0,0,1,4-15.6c.5-1.6,1.4-6,2.6-7.2-.3.7-.5,1.3-.8,1.9a13.55,13.55,0,0,1,1-2.1c.6-1.4,1.3-2.8,2-4.1a142.15,142.15,0,0,1,8.8-14.4,9.22,9.22,0,0,1,.5-.8,10.92,10.92,0,0,0-1.3,1.7c2.1-3.5,1.8-2.7,1.3-1.7.6-.7,1.2-1.4,1.7-2,2.2-2.6,4.5-5.1,6.9-7.6,9.2-9.7,19-19.4,25.8-31.1,8-13.8,11.5-29.7,8.9-45.5-5.1-31.1-37.8-44-64.4-52.1a234.59,234.59,0,0,0-43.1-8.4c-12.3-1.4-24.5-.9-36.8-1.3-1.7-.1-5.4-1-6.9-.6a.37.37,0,0,1,.3.1l1.3.3-1.8-.3c.1,0,.1,0,.2-.1a20.48,20.48,0,0,0-2.4-.5c-.3-.1-.7-.2-1.2-.4.4.4.2.6-.9-.1a9.22,9.22,0,0,1-.8-.5h0c-.1,0-.3-.1-.4-.1.6.5.6.6.1.2.3.4.2.5-.4-.3h0l-.1-.1h0c-.4-.3-.9-.7-1.6-1.2a9.25,9.25,0,0,1,1,.5c-.7-.8-.6-.8.3.2.1.1.3.2.4.3-.5-.7-1.1-1.6-1.2-1.8s-.1-.2-.2-.3c.9,3.8-2.4-3.6,0,0,0-.2-.1-.3-.1-.5-.7-2.8-1.6-5.5-2.4-8.2-.8-3.1-1.6-6.2-2.3-9.3a12.86,12.86,0,0,0-.4-1.9,10.61,10.61,0,0,0-.3-1.8,16.21,16.21,0,0,0,.3,2.1c-.7-1.6-.1-4-.2-5.6,0-.3-.1-.6-.1-.8-1.1,3.6-.5-3.4,0,0a6.37,6.37,0,0,0,.2-.7,25.82,25.82,0,0,1,.8-2.6c-2.4,3.8,1.1-4.8,0-.2v.1c.6-1,1.2-2.1,1.8-3.1a2.19,2.19,0,0,1,.3-.5,4.35,4.35,0,0,1-.6.7c.6-.9,2.1-3,.6-.7.8-.9,1.9-2,2-2.2.7-.7,1.4-1.4,2.1-2,.5-.5,1.1-1,1.7-1.5-.2.1-.3.2-.5.3,1.3-1,2-1.6,2.2-1.7-.1.1-.5.4-1.2,1l-.5.5c1.9-1,4-2.8,5.8-4,2.1-1.3,4.3-2.5,6.5-3.7,5.8-3.1,11.7-5.8,17.7-8.5,1.1-.5,2.3-1,3.4-1.5a11.64,11.64,0,0,1-1.7.6c.3-.1,2.8-1.1,3.3-1.3l8.1-3.3c6-2.4,11.9-4.9,17.9-7.4,13.1-5.5,26.1-11.2,38.4-18.5,21.3-12.8,41.2-31,52.2-53.6,12-24.6,17.6-61.5-4.4-82.6-9.9-9.4-23.3-13.8-35.1-20.3A311.46,311.46,0,0,1,393,149.4a.35.35,0,0,0-.2-.1l-.1-.1a.1.1,0,0,1-.1-.1h-.1c-.1-.1-.2-.1-.2-.2h0c-.1-.1-.2-.1-.2-.2H392l-.2-.2c-.8-.6-1.5-1.3-2.3-1.9-1.8-1.5-3.5-3.1-5.2-4.7a376.35,376.35,0,0,1,368.5,79.8c-4.5.8-8.9,1.9-13.2,3.1-22.7,6.6-45.3,18.5-61.8,35.8-18.4,19.4-28.9,45-34.1,71a398.26,398.26,0,0,0-5.8,42.3c-1.4,15.9-1.5,31.7,1.9,47.4,6.1,28.3,26.2,52,54.7,59,11,2.7,22.4,3.1,33.3,6.5.5.2.9.3,1.4.5.2.1.3.1.4.2a20.72,20.72,0,0,0,2.2,1.1.31.31,0,0,1,.2.1h0c.4.4,1.6,1.2,2,1.6s1.2,1.5,1.8,2.2h0a2.09,2.09,0,0,0,.4.6,17.1,17.1,0,0,0,1.3,2.3c0,.1,0,.1.1.2h0c.1.2.1.4.2.6a55.05,55.05,0,0,1,2,8c.2.9.3,1.9.5,2.8-.2-.7-.3-1.3-.4-1.8a7.84,7.84,0,0,1,.2,1.4,124.77,124.77,0,0,1,.1,17.3c-.7,13.7-2.4,27.4-3.7,41.1-1.4,14.6-2.7,29.3-4.1,43.9-1.1,12.2-3.2,24.7-2.2,36.9,1.4,17.9,8.1,35.4,24.5,44.8,15.5,8.9,33.3,7.2,50,3.7,6.6-1.4,13.4-2.8,20.2-4.3C759.7,801.4,638.5,876.5,500,876.5Z" transform="translate(-73.5 -73.5)"/></g></svg>