<svg id="Шар_1" data-name="Шар 1" xmlns="http://www.w3.org/2000/svg" viewBox="0 0 704.96 672.3"><defs><style>.cls-1{fill:none;stroke:#ff7819;stroke-miterlimit:10;stroke-width:60px;}</style></defs><title>Selected Ibat</title><path class="cls-1" d="M518.9,711.3l155.5,89.9c27.8,16,61.1-9.5,52.8-40.5L682.5,593.4a36,36,0,0,1,10.6-36L810.6,451.3c24.5-22.1,8.8-62.8-24.3-62.7l-152.9.4a36,36,0,0,1-33.1-21.7L534.4,215.5c-12.5-28.9-53.5-28.9-66,0l-66,151.9a36,36,0,0,1-33.1,21.7l-155.6-.2c-32.7,0-48.5,40-24.6,62.3L308.1,562a36,36,0,0,1,9.8,37.1L267.8,759c-9.7,31,23.3,58,51.7,42.3l164-90.4A36,36,0,0,1,518.9,711.3Z" transform="translate(-147.59 -163.82)"/></svg>