<svg id="Шар_1" data-name="Шар 1" xmlns="http://www.w3.org/2000/svg" viewBox="0 0 853 801.41"><defs><style>.cls-1{fill:#777;}</style></defs><title>Settings</title><g id="Шар_1-2" data-name="Шар 1"><path class="cls-1" d="M363.74,896a84.43,84.43,0,0,1-42.34-11.37l-69.3-40A85.09,85.09,0,0,1,221,728.5L258.88,663a298.25,298.25,0,0,1-24.66-42.66H158.5a85.1,85.1,0,0,1-85-85v-80a85.1,85.1,0,0,1,85-85h75.72a297.3,297.3,0,0,1,24.66-42.66L221,262.12A85.1,85.1,0,0,1,252.1,146l69.3-40A85.1,85.1,0,0,1,437.51,137.1l37.87,65.51a300.06,300.06,0,0,1,49.44,0l37.88-65.53A85,85,0,0,1,678.8,106l69.3,40A85.09,85.09,0,0,1,779.21,262.1l-37.89,65.54A298.25,298.25,0,0,1,766,370.3h75.91a84.83,84.83,0,0,1,84.61,84.9v80a85.1,85.1,0,0,1-85,85H765.78a297.3,297.3,0,0,1-24.66,42.66L779,728.38a85,85,0,0,1-31.1,116.13l-69.3,40A85,85,0,0,1,562.49,853.4l-37.87-65.51a299.82,299.82,0,0,1-49.42,0l-37.65,65.54A85.13,85.13,0,0,1,363.74,896ZM295.49,586a227.28,227.28,0,0,0,23.71,41,60.12,60.12,0,0,1,3.46,65.49l-41.06,71A15,15,0,0,0,287.1,784l69.3,40a15,15,0,0,0,20.49-5.49l41-71.45A60.47,60.47,0,0,1,476,717.68a232.26,232.26,0,0,0,47.67,0A60,60,0,0,1,582,747.21l41.14,71.17a15,15,0,0,0,20.5,5.51l69.3-40a15,15,0,0,0,5.49-20.49L677.3,692.32a59.85,59.85,0,0,1,3.54-65.47,227.48,227.48,0,0,0,23.7-41A60.1,60.1,0,0,1,759.4,550.2h82.1a15,15,0,0,0,15-15v-80a14.93,14.93,0,0,0-4.42-10.63,14.42,14.42,0,0,0-10.2-4.27H759.6a60,60,0,0,1-54.88-35.68,227.57,227.57,0,0,0-23.72-41,60.12,60.12,0,0,1-3.46-65.49l41.06-71a15,15,0,0,0-5.5-20.47l-69.3-40a15,15,0,0,0-20.49,5.49l-41.24,71.35A60.5,60.5,0,0,1,524,272.82a232.77,232.77,0,0,0-47.65,0A60.06,60.06,0,0,1,418,243.29L376.9,172.12a15,15,0,0,0-20.5-5.51l-69.3,40a15,15,0,0,0-5.49,20.49l41.09,71.08a59.85,59.85,0,0,1-3.55,65.48,227.7,227.7,0,0,0-23.69,41A60.1,60.1,0,0,1,240.6,440.3H158.5a15,15,0,0,0-15,15v80a15,15,0,0,0,15,15h82.1A60,60,0,0,1,295.49,586ZM262.1,657.38l0,0Zm475.76-.17,0,0Zm30.62-42.9v0ZM231.53,376.15v0Zm30.59-42.9,0,0Zm476-.08,0,.05Z" transform="translate(-73.5 -94.57)"/><path class="cls-1" d="M500,667.4c-94.95,0-172.2-77.25-172.2-172.2S405.05,323,500,323s172.2,77.25,172.2,172.2S595,667.4,500,667.4ZM500,393A102.2,102.2,0,1,0,602.2,495.2,102.32,102.32,0,0,0,500,393Z" transform="translate(-73.5 -94.57)"/></g></svg>