<svg id="Шар_1" data-name="Шар 1" xmlns="http://www.w3.org/2000/svg" viewBox="0 0 968.7 694.9"><defs><style>.cls-1{fill:#ff7819;}</style></defs><title>Visitors boyyyy</title><path class="cls-1" d="M466.8,471.5A264.56,264.56,0,0,0,383.2,415a167.35,167.35,0,0,0,64.2-131.6c0-92.3-75.2-167.3-167.5-167.3S112.4,191.2,112.4,283.4A167,167,0,0,0,176.6,415a264.7,264.7,0,0,0-161,243.2,28.3,28.3,0,0,0,56.6,0c0-114.4,93.2-207.5,207.7-207.5a207.75,207.75,0,0,1,163.5,79.6,355,355,0,0,1,44.1-35.7A280.26,280.26,0,0,0,466.8,471.5Zm-187-77.3c-61.1,0-110.9-49.7-110.9-110.7s49.7-110.7,110.9-110.7,110.9,49.7,110.9,110.7S341,394.2,279.8,394.2Z" transform="translate(-15.6 -116.1)"/><path class="cls-1" d="M898.8,572.4c-.8-.8-1.6-1.6-2.4-2.5A307,307,0,0,0,854,534.7a296.48,296.48,0,0,0-60.1-32,188.9,188.9,0,0,0,78.6-153.3c0-104.2-84.9-189-189.3-189S494,245.2,494,349.4a188.9,188.9,0,0,0,78.6,153.3,296,296,0,0,0-59.3,31.5A304.4,304.4,0,0,0,470.2,570l-1.7,1.7a298.7,298.7,0,0,0-86.5,211,28.3,28.3,0,0,0,56.6,0,243.33,243.33,0,0,1,47.8-145,247.94,247.94,0,0,1,48.4-49.2,244.14,244.14,0,0,1,297.5.7,251,251,0,0,1,48.5,49.7,242.49,242.49,0,0,1,46.9,143.7,28.3,28.3,0,0,0,56.6,0C984.6,703.5,954.1,628.9,898.8,572.4ZM683.3,481.8c-73.1,0-132.6-59.4-132.6-132.4S610.2,217,683.3,217s132.6,59.4,132.6,132.4S756.4,481.8,683.3,481.8Z" transform="translate(-15.6 -116.1)"/></svg>