<svg id="Шар_1" data-name="Шар 1" xmlns="http://www.w3.org/2000/svg" viewBox="0 0 2934.67 763.8"><defs><style>.cls-1{fill:#ee7627;}.cls-2{isolation:isolate;font-size:500px;fill:#ff7819;font-family:Roboto-Medium, Roboto;}.cls-3{letter-spacing:0.01em;}.cls-4{letter-spacing:-0.06em;}</style></defs><title>Write</title><path class="cls-1" d="M2886.87,194.5a73.23,73.23,0,0,1,73.2,73.2V621.3a73.23,73.23,0,0,1-73.2,73.2H465.4A75.29,75.29,0,0,0,416,713L283.6,828.8l-.8-60.3c-.5-40.8-34.2-74-75-74h-9.2a73.23,73.23,0,0,1-73.2-73.2V267.6a73.23,73.23,0,0,1,73.2-73.2l2688.27.1m0-50H198.6A123.19,123.19,0,0,0,75.4,267.7V621.3A123.19,123.19,0,0,0,198.6,744.5h9.2a25,25,0,0,1,25,24.7l1.5,114.4a25,25,0,0,0,25.1,24.7,24.52,24.52,0,0,0,16.3-6.2L448.9,750.7a25,25,0,0,1,16.5-6.2H2886.87a123.19,123.19,0,0,0,123.2-123.2V267.6a123.23,123.23,0,0,0-123.2-123.1Z" transform="translate(-75.4 -144.5)"/><text class="cls-2" transform="translate(115.71 479.5)"><tspan class="cls-3">Н</tspan><tspan x="359.62" y="0">АПИС</tspan><tspan class="cls-4" x="1728.03" y="0">А</tspan><tspan x="2031.49" y="0">ТИ</tspan></text></svg>